Coordinates
version=1
nRows=28
nColumns=23
inDegrees=yes

Units are S.I. units (second, meters, Newtons, ...)
If the header above contains a line with 'inDegrees', this indicates whether rotational values are in degrees (yes) or radians (no).

endheader
time	sacrum_pitch	sacrum_roll	sacrum_yaw	sacrum_x	sacrum_y	sacrum_z	sacroiliac_r_flx	hip_r_flx	hip_r_add	hip_r_int	knee_r_flx	ankle_r_flx	ankle_r_add	ankle_r_int	sacroiliac_l_flx	hip_l_flx	hip_l_add	hip_l_int	knee_l_flx	ankle_l_flx	ankle_l_add	ankle_l_int
      2.87000000	     18.00903555	     -2.54930740	     13.48253296	     -0.02602784	      0.06023620	     -0.00092748	      3.69999987	     43.80500126	    -18.50882833	    -10.15865659	    -88.34927649	     30.30144585	     -4.99999985	      0.00000000	      3.70000000	     20.24267015	    -15.97696394	     16.22017449	   -118.83351371	     14.01005041	     -4.99999985	      0.00000000
      2.87500000	     17.66623660	     -1.59995703	     13.18723160	     -0.02421852	      0.06000915	     -0.00000102	      3.69999987	     44.14746045	    -18.08967118	    -10.18889401	    -90.26499933	     31.29731081	     -4.99999985	      0.00000000	      3.70000000	     19.58209204	    -16.07954208	     16.96413566	   -117.95633669	     12.80590400	     -4.99999985	      0.00000000
      2.88000000	     16.97193723	     -0.73030111	     12.98319510	     -0.02242447	      0.05996057	      0.00074833	      3.69999987	     43.57542781	    -17.65438755	    -10.40097329	    -90.56293348	     31.12959121	     -4.99999985	      0.00000000	      3.70000000	     19.31793833	    -16.19502723	     16.80956301	   -117.75562977	     12.69786093	     -4.99999985	      0.00000000
      2.88500000	     17.26892307	      1.52078620	     12.51809214	     -0.02047984	      0.05948041	      0.00151752	      3.69999987	     43.91896565	    -18.14174090	     -9.16250495	    -95.12158833	     35.99643230	     -4.99999985	      0.00000000	      3.70000000	     18.18911195	    -14.81953038	     16.43042438	   -116.83789951	      4.50671902	     -4.99999985	      0.00000000
      2.89000000	     17.19700640	      2.45767241	     11.98334362	     -0.01875040	      0.05920405	      0.00220802	      3.69999987	     43.85024408	    -17.60897979	     -8.71775556	    -97.61828188	     37.78656314	     -4.99999985	      0.00000000	      3.70000000	     17.94149525	    -14.63893140	     16.47709959	   -116.60746495	      0.38067030	     -4.99999985	      0.00000000
      2.89500000	     17.28901216	      3.45535344	     11.33397688	     -0.01702450	      0.05889320	      0.00279090	      3.69999987	     43.76604033	    -17.26719278	     -8.05096238	   -100.31786241	     39.33629016	     -4.99999985	      0.00000000	      3.70000000	     17.47091881	    -14.38906123	     16.40975615	   -116.57608244	     -2.48594376	     -4.99999985	      0.00000000
      2.90000000	     17.35274868	      3.94335161	     10.88367804	     -0.01532423	      0.05860943	      0.00330188	      3.69999987	     43.57229580	    -16.68061675	     -7.67206463	   -102.94250511	     40.38547731	     -4.99999985	      0.00000000	      3.70000000	     17.40340836	    -14.24079090	     16.88602390	   -117.17335120	     -3.77837616	     -4.99999985	      0.00000000
      2.90500000	     17.60228875	      5.03158626	      9.98449665	     -0.01362871	      0.05832994	      0.00362671	      3.69999987	     43.27373501	    -16.33412343	     -6.57604267	   -105.29664475	     41.83634887	     -4.99999985	      0.00000000	      3.70000000	     17.18221408	    -13.55295007	     16.51734663	   -117.92381238	     -6.72202839	     -4.99999985	      0.00000000
      2.91000000	     17.72230261	      5.38919731	      9.53228526	     -0.01193992	      0.05810009	      0.00395025	      3.69999987	     42.68698536	    -15.83963187	     -6.27791217	   -107.26923438	     42.51192297	     -4.99999985	      0.00000000	      3.70000000	     17.71527823	    -13.22569683	     17.13469786	   -119.61994968	     -7.20096888	     -4.99999985	      0.00000000
      2.91500000	     17.90058897	      5.87424525	      8.96093946	     -0.01019082	      0.05789530	      0.00413855	      3.69999987	     41.94272753	    -15.47243029	     -5.84504556	   -109.21871422	     43.24662441	     -4.99999985	      0.00000000	      3.70000000	     18.51680130	    -12.79333848	     17.49113819	   -121.81372481	     -7.43609200	     -4.99999985	      0.00000000
      2.92000000	     18.13111809	      6.35727323	      8.37830472	     -0.00841419	      0.05770613	      0.00420239	      3.69999987	     41.04364534	    -15.21349156	     -5.26836928	   -111.00788117	     43.94640970	     -4.99999985	      0.00000000	      3.70000000	     19.60401008	    -12.29210813	     17.85282974	   -124.56339883	     -7.12272769	     -4.99999985	      0.00000000
      2.92500000	     18.41753066	      6.81135489	      7.81704691	     -0.00661888	      0.05754621	      0.00417694	      3.69999987	     40.00746614	    -15.04763613	     -4.65196880	   -112.63985909	     44.60277903	     -4.99999985	      0.00000000	      3.70000000	     21.04540814	    -11.70857432	     18.27484517	   -127.82921793	     -5.99661356	     -4.99999985	      0.00000000
      2.93000000	     18.22313984	      7.42209369	      7.27836943	     -0.00484115	      0.05749678	      0.00404470	      3.69999987	     39.51602459	    -15.15363428	     -3.81289360	   -114.10589925	     44.92264036	     -4.99999985	      0.00000000	      3.70000000	     21.67495570	    -10.91077846	     18.73051062	   -131.30336314	      5.50768029	     -4.99999985	      0.00000000
      2.93500000	     18.36366214	      7.67060489	      6.92061804	     -0.00297675	      0.05745434	      0.00393791	      3.69999987	     38.21405072	    -15.23906648	     -3.57687979	   -115.35997350	     45.14374879	     -4.99999985	      0.00000000	      3.70000000	     22.96629496	    -10.62598992	     19.49886029	   -134.46897552	     13.15010857	     -4.99999985	      0.00000000
      2.94000000	     18.59090243	      7.90333240	      6.47287275	     -0.00114509	      0.05749063	      0.00373780	      3.69999987	     36.90648013	    -15.50702241	     -3.31134173	   -116.38203420	     45.19817675	     -4.99999985	      0.00000000	      3.70000000	     24.01122790	    -10.47714701	     20.01704655	   -136.98720963	     23.64812396	     -4.99999985	      0.00000000
      2.94500000	     18.87559135	      8.06025020	      6.03102082	      0.00074237	      0.05752059	      0.00346481	      3.69999987	     35.28028512	    -15.72596429	     -2.95259081	   -117.36257729	     45.41736210	     -4.99999985	      0.00000000	      3.70000000	     26.35613592	    -10.12286102	     20.30359676	   -139.35270122	     27.09893017	     -4.99999985	      0.00000000
      2.95000000	     19.06793823	      8.04811481	      5.49326090	      0.00255014	      0.05765545	      0.00321489	      3.69999987	     34.03980981	    -15.85894957	     -2.82786932	   -118.08355379	     44.64509785	     -4.99999985	      0.00000000	      3.70000000	     27.16643948	    -10.23812672	     20.46677171	   -139.97584602	     40.58326460	     -4.99999985	      0.00000000
      2.95500000	     19.24695308	      7.95964800	      5.09672505	      0.00440543	      0.05778575	      0.00290365	      3.69999987	     32.44327625	    -16.04808914	     -2.62983795	   -118.54997039	     44.37610164	     -4.99999985	      0.00000000	      3.70000000	     29.84542173	    -10.13584293	     20.18354886	   -140.57175468	     45.60671424	     -4.99999985	      0.00000000
      2.96000000	     19.58472073	      7.84580637	      4.49508861	      0.00626231	      0.05793348	      0.00257509	      3.69999987	     30.79289935	    -16.10284975	     -2.43660610	   -119.04763477	     43.68150151	     -4.99999985	      0.00000000	      3.70000000	     32.44664920	    -10.20391670	     19.35882774	   -140.25985036	     49.25184454	     -4.99999985	      0.00000000
      2.96500000	     20.30897067	      7.76675268	      4.15996075	      0.00810369	      0.05794625	      0.00227748	      3.69999987	     28.79708792	    -16.15049522	     -2.22483945	   -119.78340726	     43.23192969	     -4.99999985	      0.00000000	      3.70000000	     35.44058268	    -10.10070358	     18.34166875	   -139.56377829	     50.72491997	     -4.99999985	      0.00000000
      2.97000000	     20.57554829	      7.42001142	      3.57341624	      0.00993754	      0.05813180	      0.00186749	      3.69999987	     26.97988082	    -16.34196185	     -2.13093500	   -119.55898780	     42.20367907	     -4.99999985	      0.00000000	      3.70000000	     38.63845407	    -10.64479189	     16.21123736	   -138.04235571	     52.34937642	     -4.99999985	      0.00000000
      2.97500000	     20.93809952	      7.15545021	      3.08697866	      0.01170569	      0.05827076	      0.00150167	      3.69999987	     25.38014232	    -16.37874214	     -1.92158736	   -119.62751348	     41.16983782	     -4.99999985	      0.00000000	      3.70000000	     41.84883342	    -11.36679460	     13.69649167	   -135.65241381	     53.25414155	     -4.99999985	      0.00000000
      2.98000000	     21.15509501	      6.96009916	      2.47966793	      0.01344198	      0.05837147	      0.00112378	      3.69999987	     24.14235489	    -16.36613327	     -1.43605441	   -120.01182187	     40.11227749	     -4.99999985	      0.00000000	      3.70000000	     44.81727259	    -12.15395567	     10.81935328	   -132.66595135	     53.64439467	     -4.99999985	      0.00000000
      2.98500000	     21.55167411	      6.77958618	      2.04835293	      0.01519200	      0.05846293	      0.00077409	      3.69999987	     22.48815397	    -16.49381127	     -1.20203806	   -120.04650442	     38.98254063	     -4.99999985	      0.00000000	      3.70000000	     47.25228675	    -12.99776482	      7.84461033	   -128.98976978	     53.72684740	     -4.99999985	      0.00000000
      2.99000000	     21.85524420	      6.77024557	      1.50047265	      0.01689831	      0.05852663	      0.00040372	      3.69999987	     21.18897366	    -16.64620528	     -0.62364037	   -120.29804033	     37.86136876	     -4.99999985	      0.00000000	      3.70000000	     49.28785998	    -13.98914391	      4.43999287	   -124.84079154	     53.70412980	     -4.99999985	      0.00000000
      2.99500000	     22.32831172	      6.54940156	      1.26509994	      0.01864691	      0.05853051	      0.00013695	      3.69999987	     19.38446721	    -16.61468598	     -0.55325661	   -120.37625272	     36.73763722	     -4.99999985	      0.00000000	      3.70000000	     50.82492320	    -14.61591541	      1.75413800	   -120.39686979	     53.25686818	     -4.99999985	      0.00000000
      3.00000000	     22.83136767	      6.35017997	      0.89730863	      0.02038663	      0.05847215	     -0.00015845	      3.69999987	     17.69625503	    -16.55261297	     -0.40371121	   -120.49237631	     35.64877742	     -4.99999985	      0.00000000	      3.70000000	     51.99511786	    -15.13872195	     -0.93048918	   -115.87238617	     52.55869992	     -4.99999985	      0.00000000
      3.00500000	     22.93682591	      6.81020883	      0.17914246	      0.02209088	      0.05850502	     -0.00057397	      3.69999987	     16.90276900	    -17.13268426	      0.86563399	   -120.74962235	     33.93500391	     -4.99999985	      0.00000000	      3.70000000	     52.11061317	    -16.00165157	     -5.23637609	   -110.11411709	     52.33831111	     -4.99999985	      0.00000000
